<svg width="58" height="61" viewBox="0 0 58 61" fill="none" xmlns="http://www.w3.org/2000/svg">
<g filter="url(#filter0_d)">
<circle cx="29" cy="28" r="25" fill="#68B738"/>
<g clip-path="url(#clip0)">
<path d="M39.2034 0H39.008C38.6778 0.187081 38.415 0.473924 38.2571 0.819588C37.968 1.37738 37.7453 1.96735 37.5937 2.57732C37.5612 2.76073 37.4688 2.92811 37.331 3.05315C37.1932 3.17818 37.0179 3.25377 36.8326 3.26804C36.2658 3.36597 35.7288 3.59243 35.2626 3.93012C34.7965 4.26781 34.4135 4.7078 34.1429 5.21649C33.7708 5.87697 33.4526 6.5665 33.1914 7.27835C32.4611 9.17526 31.9006 11.134 31.2114 13.0464C30.8874 13.9175 30.872 13.9175 29.8949 13.9175C28.7274 13.9175 28.8097 13.7371 28.7943 15.0258C28.7943 15.433 28.9177 15.6392 29.3497 15.6186C29.4834 15.6186 29.684 15.5515 29.7354 15.7268C29.7869 15.9021 29.612 15.9794 29.5091 16.0825C28.8994 16.7029 28.1276 17.1388 27.2823 17.3402C26.3051 17.6031 25.3074 17.8093 24.356 18.1289C21.9131 18.9485 19.6554 20.0928 17.8966 22.0309C16.8681 23.2347 16.0445 24.6001 15.4589 26.0722C13.5714 30.5258 12.656 35.2165 11.9463 39.9536C11.612 42.1753 11.3754 44.4072 11.1954 46.6546C11.1029 47.7577 11 48.8763 11 50H28.1411C28.1696 49.7731 28.1283 49.5429 28.0229 49.3402C27.858 48.9289 27.5901 48.5672 27.2451 48.29C26.9 48.0128 26.4895 47.8295 26.0531 47.7577C25.6931 47.6753 25.652 47.567 25.8731 47.2835C26.2338 46.801 26.5103 46.2607 26.6909 45.6856C27.5291 43.2062 27.8531 40.6186 28.2594 38.0567C28.4889 36.0999 29.0894 34.2051 30.0286 32.4742C30.7611 31.2002 31.7382 30.0842 32.9034 29.1907C33.3303 28.866 33.3457 28.866 33.4177 29.4175C33.4691 29.7835 33.4794 30.1598 33.5051 30.5309C33.6595 32.9662 33.6285 35.4097 33.4126 37.8402C33.2184 39.7242 33.1926 41.6217 33.3354 43.5103C33.5399 45.7029 33.9304 47.8739 34.5029 50H41.3429C41.2536 49.442 40.9973 48.9243 40.6078 48.5156C40.2184 48.1069 39.7143 47.8264 39.1623 47.7113C38.5177 47.6087 37.8587 47.6438 37.2286 47.8144C36.92 47.8866 36.7914 47.8144 36.7657 47.4794C36.5529 44.7505 36.7261 42.0051 37.28 39.3247C37.966 36.2304 38.4912 33.1025 38.8537 29.9536C38.9887 28.6819 39.3881 27.4528 40.0263 26.3454C40.6383 25.2526 41.1731 24.1186 41.7749 23.0206C42.0138 22.6214 42.1575 22.1723 42.195 21.7083C42.2325 21.2443 42.1626 20.7779 41.9909 20.3454C41.852 19.9794 41.7183 19.6082 41.5486 19.2577C41.0343 18.2526 40.52 17.2577 40.0469 16.2423C39.7949 15.7268 39.8514 15.6649 40.412 15.6495C41.2503 15.6495 41.2503 15.6495 41.2657 14.8041C41.2657 14.6907 41.2657 14.5773 41.2657 14.4639C41.2657 14.1082 41.132 13.9124 40.7514 13.9485C40.4943 13.9485 40.2371 13.9485 39.9697 13.9485C39.6149 13.9485 39.512 13.799 39.5994 13.433C39.7729 12.838 40.1142 12.306 40.5823 11.9009C41.0503 11.4958 41.6252 11.2349 42.2377 11.1495C43.3772 11.0505 44.5251 11.1252 45.6423 11.3711C45.7712 11.4118 45.9109 11.4001 46.0312 11.3383C46.1515 11.2766 46.2427 11.1699 46.2851 11.0412C46.4909 10.5258 46.7171 10.0103 46.9486 9.49484C47.001 9.40339 47.0242 9.29801 47.015 9.19293C47.0058 9.08785 46.9647 8.98812 46.8971 8.90722C45.2514 6.81443 43.4669 4.86082 41.0343 3.60825C40.9168 3.55754 40.8138 3.47814 40.7347 3.3773C40.6557 3.27646 40.6031 3.15738 40.5817 3.03093C40.444 2.29408 40.225 1.57487 39.9286 0.886598C39.7895 0.519904 39.5349 0.20865 39.2034 0V0Z" fill="black"/>
</g>
</g>
<defs>
<filter id="filter0_d" x="0" y="0" width="58" height="61" filterUnits="userSpaceOnUse" color-interpolation-filters="sRGB">
<feFlood flood-opacity="0" result="BackgroundImageFix"/>
<feColorMatrix in="SourceAlpha" type="matrix" values="0 0 0 0 0 0 0 0 0 0 0 0 0 0 0 0 0 0 127 0"/>
<feOffset dy="4"/>
<feGaussianBlur stdDeviation="2"/>
<feColorMatrix type="matrix" values="0 0 0 0 0 0 0 0 0 0 0 0 0 0 0 0 0 0 0.25 0"/>
<feBlend mode="normal" in2="BackgroundImageFix" result="effect1_dropShadow"/>
<feBlend mode="normal" in="SourceGraphic" in2="effect1_dropShadow" result="shape"/>
</filter>
<clipPath id="clip0">
<rect width="36" height="50" fill="white" transform="translate(11)"/>
</clipPath>
</defs>
</svg>
